<svg width="86" height="82" viewBox="0 0 86 82" fill="none" xmlns="http://www.w3.org/2000/svg">
<g clip-path="url(#clip0_14424_9771)">
<path d="M38.4309 69.6028C47.0061 82.6991 60.1196 78.5031 66.623 70.2884C73.4537 62.1716 73.6758 50.0368 64.0531 49.5187C45.5111 47.9036 30.1534 57.6148 38.4309 69.6028Z" fill="#D0F3A2"/>
<path d="M57.58 33.6193C85.0719 41.6005 87.7973 9.25693 76.3496 6.4463C67.0151 4.34146 40.9437 28.6666 57.58 33.6193Z" fill="#D0F3A2"/>
<path d="M17.7491 30.2711C3.7328 27.6366 -5.71451 53.2335 12.6642 54.8536C27.3024 55.2156 33.1746 48.63 32.6407 42.7753C32.2389 36.7421 25.4291 31.4416 17.7491 30.2711Z" fill="#D0F3A2"/>
<path d="M37.1777 4.74875C26.9589 11.1298 28.3324 29.3994 39.02 25.7533C53.9822 19.6087 48.1851 -2.96789 37.1777 4.74875Z" fill="#D0F3A2"/>
</g>
<defs>
<clipPath id="clip0_14424_9771">
<rect width="86" height="82" fill="white"/>
</clipPath>
</defs>
</svg>
