<svg width="86" height="96" viewBox="0 0 86 96" fill="none" xmlns="http://www.w3.org/2000/svg">
<g clip-path="url(#clip0_14424_9772)">
<path d="M2.03522 48.934C4.39553 59.3347 6.75488 69.7356 9.11511 80.1355C9.92035 83.6844 17.369 82.95 16.5562 79.3659C14.1959 68.9652 11.8367 58.5644 9.47642 48.1644C8.67118 44.6155 1.2215 45.35 2.03522 48.934Z" fill="#FFC74E"/>
<path d="M40.4914 39.2623C46.7421 46.936 52.9923 54.6088 59.2439 62.282C62.0381 65.7129 67.3862 60.478 64.606 57.0657C58.3553 49.392 52.105 41.7191 45.8535 34.046C43.0592 30.6151 37.7111 35.85 40.4914 39.2623Z" fill="#FFC74E"/>
<path d="M49.223 17.3679C58.3856 21.0098 67.5475 24.6512 76.7107 28.2923C80.8069 29.9208 82.9776 22.7334 78.9025 21.1142C69.7398 17.4723 60.578 13.8309 51.4148 10.1898C47.3186 8.56131 45.1479 15.7487 49.223 17.3679Z" fill="#FFC74E"/>
<path d="M28.5832 59.8351C33.0876 69.1596 37.5909 78.4835 42.0953 87.808C43.8763 91.4953 50.4814 88.1036 48.7052 84.4274C44.2008 75.1029 39.6975 65.779 35.1931 56.4545C33.4119 52.7664 26.8069 56.1589 28.5832 59.8351Z" fill="#FFC74E"/>
</g>
<defs>
<clipPath id="clip0_14424_9772">
<rect width="86" height="96" fill="white" transform="matrix(1 0 0 -1 0 96)"/>
</clipPath>
</defs>
</svg>
